<?xml version="1.0" encoding="UTF-8"?>
<!DOCTYPE svg PUBLIC "-//W3C//DTD SVG 1.1//EN" "http://www.w3.org/Graphics/SVG/1.1/DTD/svg11.dtd">
<svg xmlns="http://www.w3.org/2000/svg" version="1.1" width="219px" height="281px" style="shape-rendering:geometricPrecision; text-rendering:geometricPrecision; image-rendering:optimizeQuality; fill-rule:evenodd; clip-rule:evenodd" xmlns:xlink="http://www.w3.org/1999/xlink">
<g><path style="opacity:1" fill="#fbfcfd" d="M -0.5,-0.5 C 72.5,-0.5 145.5,-0.5 218.5,-0.5C 218.5,93.1667 218.5,186.833 218.5,280.5C 145.5,280.5 72.5,280.5 -0.5,280.5C -0.5,186.833 -0.5,93.1667 -0.5,-0.5 Z"/></g>
<g><path style="opacity:1" fill="#8a8d9c" d="M 24.5,117.5 C 27.3404,116.083 30.007,116.416 32.5,118.5C 29.8728,117.908 27.2062,117.575 24.5,117.5 Z"/></g>
<g><path style="opacity:1" fill="#c1c5cd" d="M 172.5,146.5 C 171.833,146.5 171.167,146.5 170.5,146.5C 171.455,140.591 171.789,134.591 171.5,128.5C 167.833,128.5 164.167,128.5 160.5,128.5C 159.866,136.903 160.533,144.903 162.5,152.5C 162.167,153.167 161.833,153.833 161.5,154.5C 159.938,154.733 158.605,155.4 157.5,156.5C 157.5,147.167 157.5,137.833 157.5,128.5C 119.833,128.5 82.1667,128.5 44.5,128.5C 44.5,133.833 44.5,139.167 44.5,144.5C 44.1667,144.5 43.8333,144.5 43.5,144.5C 43.5,100.5 43.5,56.5 43.5,12.5C 86.5,12.5 129.5,12.5 172.5,12.5C 172.5,57.1667 172.5,101.833 172.5,146.5 Z"/></g>
<g><path style="opacity:1" fill="#f3f7fa" d="M 44.5,13.5 C 86.8333,13.5 129.167,13.5 171.5,13.5C 171.5,51.5 171.5,89.5 171.5,127.5C 167.833,127.5 164.167,127.5 160.5,127.5C 160.666,119.493 160.5,111.493 160,103.5C 159.586,103.043 159.086,102.709 158.5,102.5C 157.502,110.807 157.169,119.14 157.5,127.5C 119.833,127.5 82.1667,127.5 44.5,127.5C 44.5,89.5 44.5,51.5 44.5,13.5 Z"/></g>
<g><path style="opacity:1" fill="#fefdfc" d="M 106.5,41.5 C 125.38,43.2775 134.546,53.6108 134,72.5C 129.272,89.6176 118.106,96.7843 100.5,94C 81.9989,85.4831 77.1656,71.9831 86,53.5C 91.2173,46.4832 98.0507,42.4832 106.5,41.5 Z"/></g>
<g><path style="opacity:1" fill="#feddc2" d="M 101.5,72.5 C 104.167,72.5 106.833,72.5 109.5,72.5C 109.66,74.1992 109.494,75.8659 109,77.5C 108.517,76.552 108.351,75.552 108.5,74.5C 106.5,74.5 104.5,74.5 102.5,74.5C 102.167,73.8333 101.833,73.1667 101.5,72.5 Z"/></g>
<g><path style="opacity:1" fill="#fd8628" d="M 102.5,74.5 C 104.5,74.5 106.5,74.5 108.5,74.5C 108.351,75.552 108.517,76.552 109,77.5C 109.494,75.8659 109.66,74.1992 109.5,72.5C 106.833,72.5 104.167,72.5 101.5,72.5C 95.4448,64.9393 96.4448,58.4393 104.5,53C 112.924,51.1342 117.757,54.3009 119,62.5C 116.599,63.6023 114.099,63.769 111.5,63C 110.773,61.6012 110.273,60.1012 110,58.5C 109.505,60.4727 109.338,62.4727 109.5,64.5C 112.448,64.2229 115.281,64.5562 118,65.5C 117.762,72.9724 114.596,78.9724 108.5,83.5C 105.748,80.9956 103.748,77.9956 102.5,74.5 Z"/></g>
<g><path style="opacity:1" fill="#fefefe" d="M 157.5,156.5 C 152.433,161.37 146.433,164.704 139.5,166.5C 118.807,166.787 98.1399,166.454 77.5,165.5C 69.7129,162.776 62.7129,158.776 56.5,153.5C 53.0711,149.738 49.0711,146.738 44.5,144.5C 44.5,139.167 44.5,133.833 44.5,128.5C 82.1667,128.5 119.833,128.5 157.5,128.5C 157.5,137.833 157.5,147.167 157.5,156.5 Z"/></g>
<g><path style="opacity:1" fill="#fcfcfd" d="M 170.5,146.5 C 167.527,148.147 164.86,150.147 162.5,152.5C 160.533,144.903 159.866,136.903 160.5,128.5C 164.167,128.5 167.833,128.5 171.5,128.5C 171.789,134.591 171.455,140.591 170.5,146.5 Z"/></g>
<g><path style="opacity:1" fill="#797c8a" d="M 42.5,145.5 C 42.5,146.833 42.5,148.167 42.5,149.5C 41.6862,147.369 41.1862,145.036 41,142.5C 39.3221,140.447 37.4888,140.113 35.5,141.5C 34.209,141.737 33.209,141.404 32.5,140.5C 38.4727,136.829 41.806,138.496 42.5,145.5 Z"/></g>
<g><path style="opacity:1" fill="#757987" d="M 183.5,140.5 C 182.486,141.674 181.153,142.34 179.5,142.5C 179.304,140.354 178.304,140.188 176.5,142C 175.901,143.622 175.234,145.122 174.5,146.5C 174.167,146.5 173.833,146.5 173.5,146.5C 174.323,140.419 177.656,138.419 183.5,140.5 Z"/></g>
<g><path style="opacity:1" fill="#363b53" d="M 24.5,117.5 C 27.2062,117.575 29.8728,117.908 32.5,118.5C 36.2519,120.794 37.4186,124.128 36,128.5C 33.4631,130.86 31.6297,133.693 30.5,137C 30.8082,138.459 31.4749,139.626 32.5,140.5C 33.209,141.404 34.209,141.737 35.5,141.5C 36.5669,143.879 35.5669,144.879 32.5,144.5C 32.3333,183.168 32.5,221.835 33,260.5C 37.5187,263.239 42.0187,265.906 46.5,268.5C 33.8333,268.5 21.1667,268.5 8.5,268.5C 12.9434,265.194 17.7767,262.527 23,260.5C 23.5,221.835 23.6667,183.168 23.5,144.5C 21.8333,144.5 20.1667,144.5 18.5,144.5C 18.5,143.5 18.5,142.5 18.5,141.5C 22.0024,141.833 24.3357,140.333 25.5,137C 24.202,134.101 22.3686,131.601 20,129.5C 18.3107,124.177 19.8107,120.177 24.5,117.5 Z"/></g>
<g><path style="opacity:1" fill="#303345" d="M 43.5,144.5 C 43.8333,144.5 44.1667,144.5 44.5,144.5C 49.0711,146.738 53.0711,149.738 56.5,153.5C 54.7376,154.262 53.7376,155.596 53.5,157.5C 50.8508,155.86 48.1841,154.193 45.5,152.5C 45.1583,151.662 44.4916,151.328 43.5,151.5C 43.1667,150.833 42.8333,150.167 42.5,149.5C 42.5,148.167 42.5,146.833 42.5,145.5C 43.1667,145.5 43.5,145.167 43.5,144.5 Z"/></g>
<g><path style="opacity:1" fill="#bfc2cb" d="M 181.5,145.5 C 181.56,144.957 181.893,144.624 182.5,144.5C 183.831,183.331 183.831,221.998 182.5,260.5C 182.832,221.996 182.499,183.663 181.5,145.5 Z"/></g>
<g><path style="opacity:1" fill="#373c54" d="M 206.5,268.5 C 194.162,268.333 181.829,268.5 169.5,269C 168.692,269.308 168.025,269.808 167.5,270.5C 181.484,271.499 195.484,271.833 209.5,271.5C 195.343,272.496 181.01,272.829 166.5,272.5C 166.286,270.856 166.62,269.356 167.5,268C 172.527,265.487 177.527,262.987 182.5,260.5C 183.831,221.998 183.831,183.331 182.5,144.5C 181.893,144.624 181.56,144.957 181.5,145.5C 180.883,145.611 180.383,145.944 180,146.5C 179.51,145.207 179.343,143.873 179.5,142.5C 181.153,142.34 182.486,141.674 183.5,140.5C 184.88,140.038 185.547,139.038 185.5,137.5C 184.126,134.199 182.293,131.199 180,128.5C 178.613,121.875 181.28,117.875 188,116.5C 195.21,118.042 197.877,122.376 196,129.5C 193.631,131.601 191.798,134.101 190.5,137C 191.664,140.333 193.998,141.833 197.5,141.5C 197.5,142.5 197.5,143.5 197.5,144.5C 195.833,144.5 194.167,144.5 192.5,144.5C 192.333,183.168 192.5,221.835 193,260.5C 197.481,263.319 201.981,265.986 206.5,268.5 Z"/></g>
<g><path style="opacity:1" fill="#2c2f42" d="M 170.5,146.5 C 171.167,146.5 171.833,146.5 172.5,146.5C 172.833,146.5 173.167,146.5 173.5,146.5C 173.833,146.5 174.167,146.5 174.5,146.5C 174.741,148.886 174.075,150.886 172.5,152.5C 171.5,152.833 170.833,153.5 170.5,154.5C 168.167,155.833 165.833,157.167 163.5,158.5C 162.4,157.395 161.733,156.062 161.5,154.5C 161.833,153.833 162.167,153.167 162.5,152.5C 164.86,150.147 167.527,148.147 170.5,146.5 Z"/></g>
<g><path style="opacity:1" fill="#c4c9d0" d="M 43.5,151.5 C 44.4916,151.328 45.1583,151.662 45.5,152.5C 44.5139,156.97 44.1805,161.637 44.5,166.5C 51.5,166.5 58.5,166.5 65.5,166.5C 66.4916,166.328 67.1583,166.662 67.5,167.5C 59.8333,167.5 52.1667,167.5 44.5,167.5C 44.5,195.833 44.5,224.167 44.5,252.5C 86.8333,252.5 129.167,252.5 171.5,252.5C 171.5,224.167 171.5,195.833 171.5,167.5C 167.833,167.5 164.167,167.5 160.5,167.5C 160.5,175.5 160.5,183.5 160.5,191.5C 159.5,191.5 158.5,191.5 157.5,191.5C 157.827,182.318 157.493,173.318 156.5,164.5C 157.795,163.512 159.128,162.512 160.5,161.5C 160.5,163.167 160.5,164.833 160.5,166.5C 164.167,166.5 167.833,166.5 171.5,166.5C 171.817,162.298 171.483,158.298 170.5,154.5C 170.833,153.5 171.5,152.833 172.5,152.5C 172.5,186.167 172.5,219.833 172.5,253.5C 129.5,253.5 86.5,253.5 43.5,253.5C 43.5,219.5 43.5,185.5 43.5,151.5 Z"/></g>
<g><path style="opacity:1" fill="#f3f7fa" d="M 156.5,164.5 C 157.493,173.318 157.827,182.318 157.5,191.5C 158.5,191.5 159.5,191.5 160.5,191.5C 160.5,183.5 160.5,175.5 160.5,167.5C 164.167,167.5 167.833,167.5 171.5,167.5C 171.5,195.833 171.5,224.167 171.5,252.5C 129.167,252.5 86.8333,252.5 44.5,252.5C 44.5,224.167 44.5,195.833 44.5,167.5C 52.1667,167.5 59.8333,167.5 67.5,167.5C 89.4763,177.02 112.143,179.02 135.5,173.5C 139.708,173.323 143.374,171.99 146.5,169.5C 149.768,167.866 153.101,166.199 156.5,164.5 Z"/></g>
<g><path style="opacity:1" fill="#f9cca9" d="M 146.5,169.5 C 143.374,171.99 139.708,173.323 135.5,173.5C 138.939,171.796 142.605,170.462 146.5,169.5 Z"/></g>
<g><path style="opacity:1" fill="#fb872b" d="M 56.5,153.5 C 62.7129,158.776 69.7129,162.776 77.5,165.5C 79.936,166.871 82.6027,167.871 85.5,168.5C 99.9771,171.992 114.644,172.492 129.5,170C 130.901,169.59 132.234,169.09 133.5,168.5C 135.786,168.405 137.786,167.738 139.5,166.5C 146.433,164.704 152.433,161.37 157.5,156.5C 158.605,155.4 159.938,154.733 161.5,154.5C 161.733,156.062 162.4,157.395 163.5,158.5C 162.694,159.728 161.694,160.728 160.5,161.5C 159.128,162.512 157.795,163.512 156.5,164.5C 153.101,166.199 149.768,167.866 146.5,169.5C 142.605,170.462 138.939,171.796 135.5,173.5C 112.143,179.02 89.4763,177.02 67.5,167.5C 67.1583,166.662 66.4916,166.328 65.5,166.5C 61.5,163.5 57.5,160.5 53.5,157.5C 53.7376,155.596 54.7376,154.262 56.5,153.5 Z"/></g>
<g><path style="opacity:1" fill="#f6ede7" d="M 85.5,168.5 C 101.5,167.167 117.5,167.167 133.5,168.5C 132.234,169.09 130.901,169.59 129.5,170C 114.644,172.492 99.9771,171.992 85.5,168.5 Z"/></g>
<g><path style="opacity:1" fill="#cecacb" d="M 77.5,165.5 C 98.1399,166.454 118.807,166.787 139.5,166.5C 137.786,167.738 135.786,168.405 133.5,168.5C 117.5,167.167 101.5,167.167 85.5,168.5C 82.6027,167.871 79.936,166.871 77.5,165.5 Z"/></g>
<g><path style="opacity:1" fill="#f8f7f7" d="M 170.5,154.5 C 171.483,158.298 171.817,162.298 171.5,166.5C 167.833,166.5 164.167,166.5 160.5,166.5C 160.5,164.833 160.5,163.167 160.5,161.5C 161.694,160.728 162.694,159.728 163.5,158.5C 165.833,157.167 168.167,155.833 170.5,154.5 Z"/></g>
<g><path style="opacity:1" fill="#faf9f8" d="M 45.5,152.5 C 48.1841,154.193 50.8508,155.86 53.5,157.5C 57.5,160.5 61.5,163.5 65.5,166.5C 58.5,166.5 51.5,166.5 44.5,166.5C 44.1805,161.637 44.5139,156.97 45.5,152.5 Z"/></g>
<g><path style="opacity:1" fill="#23283d" d="M 206.5,268.5 C 207.5,268.5 208.5,268.5 209.5,268.5C 209.5,269.5 209.5,270.5 209.5,271.5C 195.484,271.833 181.484,271.499 167.5,270.5C 168.025,269.808 168.692,269.308 169.5,269C 181.829,268.5 194.162,268.333 206.5,268.5 Z"/></g>
<g><path style="opacity:1" fill="#434859" d="M 8.5,268.5 C 8.19607,269.15 7.86273,269.817 7.5,270.5C 21.1504,271.499 34.8171,271.833 48.5,271.5C 48.5,270.5 48.5,269.5 48.5,268.5C 49.4345,269.568 49.7678,270.901 49.5,272.5C 35.1667,272.5 20.8333,272.5 6.5,272.5C 6.15684,270.517 6.82351,269.183 8.5,268.5 Z"/></g>
<g><path style="opacity:1" fill="#23283c" d="M 8.5,268.5 C 21.1667,268.5 33.8333,268.5 46.5,268.5C 47.1667,268.5 47.8333,268.5 48.5,268.5C 48.5,269.5 48.5,270.5 48.5,271.5C 34.8171,271.833 21.1504,271.499 7.5,270.5C 7.86273,269.817 8.19607,269.15 8.5,268.5 Z"/></g>
</svg>
