<svg version="1.2" xmlns="http://www.w3.org/2000/svg" viewBox="0 0 1042 1543" width="1042" height="1543">
	<title>swiggy_BIG copy-svg</title>
	<style>
		.s0 { fill: #ffffff } 
	</style>
	<path id="Layer" class="s0" d="m522.9 1542.3q-1.4-1.1-3.1-2.8c-18.9-23-133.5-166.9-250.8-351.6-35-58.7-58-104.7-53.5-116.4 11.6-30.9 215.4-47.7 278.6-19.9 18.8 8.6 18.5 19.9 18.5 26.5 0 28.1-1.4 104-1.4 104 0 15.4 12.7 28.1 28.5 28.1 15.8 0 28.5-12.7 28.1-28.4l-0.3-188.9c0-16.1-17.9-20.2-21.3-20.9-32.6-0.4-99.5-0.4-170.9-0.4-157.8 0-193.1 6.2-219.9-11.3-58-37.8-153-293.9-155.4-438.1-3.1-203.2 117.3-379.4 286.8-466.6 71-35.3 151-55.6 235.4-55.6 268.6 0 489.6 202.6 519.1 463.2v0.6c5.5 63.2-342.1 76.6-410.7 58.4-10.6-3.1-13-13.7-13-18.5-0.4-47.8-0.7-182.7-0.7-182.7 0-15.8-12.7-28.5-28.5-28.1-15.4 0-28.1 12.7-28.1 28.1l0.3 248.6c0.7 15.8 13.7 19.9 17.5 20.6h215.5c114.9 0 163.3 13.4 195.2 37.8 21.6 16.1 29.8 47.3 22.6 87.9-64.5 360.8-473.1 807.8-488.5 826.4z"/>
</svg>